<svg xmlns="http://www.w3.org/2000/svg" version="1.1" xmlns:xlink="http://www.w3.org/1999/xlink" xmlns:svgjs="http://svgjs.dev/svgjs" viewBox="0 0 4.623233401685889 1.5720217469171338"><g transform="matrix(1,0,0,1,1.825903515605209,0.574825873458567)"><g><path d=" M 0.44694 0.41534999999999994 L 0.45747 0.41827499999999995 Q 0.45279 0.45044999999999996 0.442845 0.47355749999999996 Q 0.4329 0.49666499999999997 0.417105 0.509535 Q 0.40482 0.5194799999999999 0.3852225 0.5259149999999999 Q 0.36562500000000003 0.53235 0.34164 0.53235 Q 0.309465 0.53235 0.2787525 0.522405 Q 0.24804 0.5124599999999999 0.21645 0.49812749999999995 Q 0.18486 0.483795 0.14976 0.47034 Q 0.14566500000000002 0.46917 0.1418625 0.46770749999999994 Q 0.13806000000000002 0.46624499999999997 0.13572 0.46624499999999997 Q 0.12460500000000001 0.47151 0.1114425 0.47502 Q 0.09828 0.47852999999999996 0.08658 0.47852999999999996 Q 0.07488 0.47852999999999996 0.0669825 0.47502 Q 0.059085 0.47151 0.059085 0.46331999999999995 Q 0.059085 0.44752499999999995 0.09126000000000001 0.44752499999999995 Q 0.111735 0.44752499999999995 0.13572 0.455715 Q 0.157365 0.44986499999999996 0.1728675 0.44255249999999996 Q 0.18837 0.43523999999999996 0.20504250000000002 0.428805 Q 0.221715 0.42236999999999997 0.2457 0.42061499999999996 L 0.246285 0.429975 Q 0.22756500000000002 0.43172999999999995 0.2144025 0.4367025 Q 0.20124 0.441675 0.187785 0.44752499999999995 Q 0.17433 0.453375 0.156195 0.45864 Q 0.19773000000000002 0.46156499999999995 0.233415 0.4647825 Q 0.2691 0.46799999999999997 0.29952 0.46887749999999995 Q 0.32994 0.469755 0.35451 0.46624499999999997 Q 0.39078 0.46214999999999995 0.41184 0.45044999999999996 Q 0.4329 0.43875 0.44694 0.41534999999999994 M 0.232245 -5.551115123125783e-17 Q 0.294255 -5.551115123125783e-17 0.3407625 0.025154999999999983 Q 0.38727 0.050309999999999966 0.41301 0.09740249999999995 Q 0.43875000000000003 0.14449499999999998 0.43875000000000003 0.21176999999999996 Q 0.43875000000000003 0.2772899999999999 0.412425 0.32643 Q 0.3861 0.37556999999999996 0.3390075 0.40306499999999995 Q 0.29191500000000004 0.43055999999999994 0.23166 0.43055999999999994 Q 0.16965 0.43055999999999994 0.1231425 0.40540499999999996 Q 0.07663500000000001 0.38025 0.050895 0.33286499999999997 Q 0.025155 0.28547999999999996 0.025155 0.21878999999999996 Q 0.025155 0.15326999999999996 0.0517725 0.10412999999999994 Q 0.07839 0.05498999999999998 0.12489750000000001 0.027494999999999936 Q 0.171405 -5.551115123125783e-17 0.232245 -5.551115123125783e-17 M 0.229905 0.010529999999999984 Q 0.19714500000000001 0.010529999999999984 0.1728675 0.03685499999999997 Q 0.14859 0.06317999999999996 0.1354275 0.10939499999999996 Q 0.122265 0.15560999999999997 0.122265 0.21644999999999998 Q 0.122265 0.27845999999999993 0.1371825 0.32438249999999996 Q 0.1521 0.370305 0.1775475 0.39516749999999995 Q 0.202995 0.42002999999999996 0.234 0.42002999999999996 Q 0.26676 0.42002999999999996 0.2910375 0.39370499999999997 Q 0.315315 0.36738 0.32847750000000003 0.32087249999999995 Q 0.34164 0.27436499999999997 0.34164 0.21410999999999997 Q 0.34164 0.15151499999999996 0.3267225 0.10588499999999995 Q 0.311805 0.06025499999999995 0.2863575 0.03539249999999994 Q 0.26091000000000003 0.010529999999999984 0.229905 0.010529999999999984 M 0.8546995678710938 0.008189999999999975 L 0.8546995678710938 0.019889999999999963 Q 0.8359795678710937 0.022229999999999972 0.8263270678710937 0.02954249999999997 Q 0.8166745678710937 0.03685499999999997 0.8137495678710938 0.052649999999999975 Q 0.8108245678710937 0.06844499999999998 0.8108245678710937 0.09710999999999997 L 0.8108245678710937 0.252135 Q 0.8108245678710937 0.29016 0.8055595678710937 0.32175 Q 0.8002945678710938 0.35334 0.7868395678710938 0.37615499999999996 Q 0.7716295678710937 0.40130999999999994 0.7423795678710937 0.41593499999999994 Q 0.7131295678710937 0.43055999999999994 0.6680845678710937 0.43055999999999994 Q 0.6411745678710937 0.43055999999999994 0.6130945678710937 0.42441749999999995 Q 0.5850145678710937 0.41827499999999995 0.5627845678710938 0.40130999999999994 Q 0.5440645678710937 0.38551499999999994 0.5341195678710937 0.365625 Q 0.5241745678710937 0.34573499999999996 0.5206645678710937 0.3185325 Q 0.5171545678710937 0.29133 0.5171545678710937 0.25388999999999995 L 0.5171545678710937 0.07019999999999998 Q 0.5171545678710937 0.04855499999999996 0.5139370678710937 0.03831749999999995 Q 0.5107195678710937 0.02807999999999994 0.5013595678710937 0.024277499999999952 Q 0.4919995678710937 0.020474999999999965 0.4732795678710937 0.019889999999999963 L 0.4732795678710937 0.008189999999999975 Q 0.4879045678710937 0.008774999999999977 0.5127670678710937 0.00935999999999998 Q 0.5376295678710937 0.009944999999999982 0.5645395678710937 0.009944999999999982 Q 0.5914495678710937 0.009944999999999982 0.6163120678710937 0.00935999999999998 Q 0.6411745678710937 0.008774999999999977 0.6575545678710937 0.008189999999999975 L 0.6575545678710937 0.019889999999999963 Q 0.6376645678710937 0.020474999999999965 0.6274270678710937 0.024277499999999952 Q 0.6171895678710937 0.02807999999999994 0.6136795678710938 0.03831749999999995 Q 0.6101695678710937 0.04855499999999996 0.6101695678710937 0.07019999999999998 L 0.6101695678710937 0.290745 Q 0.6101695678710937 0.32993999999999996 0.6171895678710937 0.35655749999999997 Q 0.6242095678710937 0.383175 0.6420520678710937 0.39663 Q 0.6598945678710937 0.410085 0.6908995678710937 0.410085 Q 0.7318495678710937 0.410085 0.7549570678710937 0.39077999999999996 Q 0.7780645678710938 0.37147499999999994 0.7877170678710937 0.33725249999999996 Q 0.7973695678710937 0.30302999999999997 0.7973695678710937 0.25856999999999997 L 0.7973695678710937 0.10412999999999994 Q 0.7973695678710937 0.07195499999999994 0.7932745678710937 0.054697499999999954 Q 0.7891795678710938 0.03743999999999997 0.7771870678710937 0.029834999999999945 Q 0.7651945678710937 0.022229999999999972 0.7406245678710937 0.019889999999999963 L 0.7406245678710937 0.008189999999999975 Q 0.7517395678710938 0.008774999999999977 0.7698745678710937 0.00935999999999998 Q 0.7880095678710937 0.009944999999999982 0.8038045678710937 0.009944999999999982 Q 0.8178445678710937 0.009944999999999982 0.8315920678710937 0.00935999999999998 Q 0.8453395678710938 0.008774999999999977 0.8546995678710938 0.008189999999999975 M 1.06706970703125 0.008189999999999975 L 1.06706970703125 0.019889999999999963 Q 1.04834970703125 0.020474999999999965 1.03869720703125 0.024277499999999952 Q 1.02904470703125 0.02807999999999994 1.02611970703125 0.03831749999999995 Q 1.02319470703125 0.04855499999999996 1.02319470703125 0.07019999999999998 L 1.02319470703125 0.36035999999999996 Q 1.02319470703125 0.38142 1.02641220703125 0.39194999999999997 Q 1.02962970703125 0.40247999999999995 1.03898970703125 0.40598999999999996 Q 1.04834970703125 0.4095 1.06706970703125 0.41067 L 1.06706970703125 0.42236999999999997 Q 1.05127470703125 0.42119999999999996 1.02728970703125 0.4209075 Q 1.00330470703125 0.42061499999999996 0.97873470703125 0.42061499999999996 Q 0.95006970703125 0.42061499999999996 0.92579220703125 0.4209075 Q 0.90151470703125 0.42119999999999996 0.88630470703125 0.42236999999999997 L 0.88630470703125 0.41067 Q 0.90502470703125 0.4095 0.91438470703125 0.40598999999999996 Q 0.92374470703125 0.40247999999999995 0.92696220703125 0.39194999999999997 Q 0.93017970703125 0.38142 0.93017970703125 0.36035999999999996 L 0.93017970703125 0.07019999999999998 Q 0.93017970703125 0.04855499999999996 0.92696220703125 0.03831749999999995 Q 0.92374470703125 0.02807999999999994 0.91409220703125 0.024277499999999952 Q 0.90443970703125 0.020474999999999965 0.88630470703125 0.019889999999999963 L 0.88630470703125 0.008189999999999975 Q 0.90151470703125 0.008774999999999977 0.92579220703125 0.00935999999999998 Q 0.95006970703125 0.009944999999999982 0.97873470703125 0.009944999999999982 Q 1.00330470703125 0.009944999999999982 1.02728970703125 0.00935999999999998 Q 1.05127470703125 0.008774999999999977 1.06706970703125 0.008189999999999975 M 1.41337599609375 0.008189999999999975 L 1.41337599609375 0.019889999999999963 L 1.21330599609375 0.408915 L 1.27414599609375 0.408915 Q 1.29403599609375 0.408915 1.31421849609375 0.40247999999999995 Q 1.33440099609375 0.396045 1.35165849609375 0.38142 Q 1.36891599609375 0.366795 1.38120099609375 0.3425175 Q 1.39348599609375 0.31823999999999997 1.39758099609375 0.28196999999999994 L 1.41103599609375 0.28196999999999994 Q 1.40928099609375 0.30185999999999996 1.40928099609375 0.33344999999999997 Q 1.40928099609375 0.34690499999999996 1.40986599609375 0.37147499999999994 Q 1.4104509960937501 0.396045 1.41337599609375 0.42236999999999997 Q 1.38120099609375 0.42119999999999996 1.3405434960937501 0.4209075 Q 1.29988599609375 0.42061499999999996 1.26771099609375 0.42061499999999996 Q 1.22968599609375 0.42061499999999996 1.18815099609375 0.4209075 Q 1.14661599609375 0.42119999999999996 1.11034599609375 0.42236999999999997 L 1.11034599609375 0.41067 L 1.31100099609375 0.02164499999999997 L 1.24782099609375 0.02164499999999997 Q 1.21857099609375 0.02164499999999997 1.19400099609375 0.03246749999999998 Q 1.1694309960937501 0.04328999999999994 1.15305099609375 0.06932249999999995 Q 1.13667099609375 0.09535499999999997 1.13082099609375 0.14156999999999997 L 1.11736599609375 0.14156999999999997 Q 1.11853599609375 0.13337999999999994 1.11882849609375 0.12167999999999995 Q 1.11912099609375 0.10997999999999997 1.11912099609375 0.09710999999999997 Q 1.11912099609375 0.08365499999999998 1.11824349609375 0.05908499999999994 Q 1.11736599609375 0.03451499999999996 1.11502599609375 0.008189999999999975 Q 1.14427599609375 0.00935999999999998 1.1808384960937501 0.009652499999999953 Q 1.21740099609375 0.009944999999999982 1.24665099609375 0.009944999999999982 Q 1.28584599609375 0.009944999999999982 1.33030599609375 0.009652499999999953 Q 1.3747659960937502 0.00935999999999998 1.41337599609375 0.008189999999999975 M 2.008298430175781 0.008189999999999975 L 2.008298430175781 0.019889999999999963 Q 1.9954284301757812 0.02456999999999998 1.9813884301757814 0.040072499999999955 Q 1.9673484301757813 0.05557499999999993 1.9568184301757814 0.08950499999999995 L 1.8538584301757814 0.42353999999999997 Q 1.8491784301757814 0.42295499999999997 1.8439134301757814 0.42295499999999997 Q 1.8386484301757813 0.42295499999999997 1.8333834301757814 0.42295499999999997 Q 1.8281184301757814 0.42295499999999997 1.8228534301757813 0.42295499999999997 Q 1.8175884301757814 0.42295499999999997 1.8129084301757814 0.42353999999999997 L 1.6900584301757813 0.05147999999999997 Q 1.6842084301757814 0.03334499999999996 1.6757259301757814 0.026909999999999934 Q 1.6672434301757812 0.020474999999999965 1.6578834301757814 0.019889999999999963 L 1.6578834301757814 0.008189999999999975 Q 1.6742634301757813 0.008774999999999977 1.6967859301757813 0.00935999999999998 Q 1.7193084301757813 0.009944999999999982 1.7415384301757815 0.009944999999999982 Q 1.7672784301757813 0.009944999999999982 1.7898009301757813 0.00935999999999998 Q 1.8123234301757813 0.008774999999999977 1.8257784301757813 0.008189999999999975 L 1.8257784301757813 0.019889999999999963 Q 1.8082284301757814 0.020474999999999965 1.7979909301757813 0.02398499999999998 Q 1.7877534301757814 0.027494999999999936 1.7862909301757814 0.03743999999999997 Q 1.7848284301757813 0.047384999999999955 1.7918484301757813 0.06902999999999998 L 1.8749184301757813 0.32292 L 1.8614634301757813 0.34690499999999996 L 1.9275684301757814 0.13688999999999996 Q 1.9416084301757812 0.09242999999999996 1.9410234301757814 0.06727499999999997 Q 1.9404384301757813 0.042119999999999935 1.9275684301757814 0.03129749999999998 Q 1.9146984301757812 0.020474999999999965 1.8907134301757813 0.019889999999999963 L 1.8907134301757813 0.008189999999999975 Q 1.9106034301757813 0.008774999999999977 1.9281534301757812 0.00935999999999998 Q 1.9457034301757814 0.009944999999999982 1.9632534301757814 0.009944999999999982 Q 1.9767084301757814 0.009944999999999982 1.9881159301757814 0.00935999999999998 Q 1.9995234301757814 0.008774999999999977 2.008298430175781 0.008189999999999975 M 1.5906084301757812 0.008189999999999975 L 1.5906084301757812 0.019889999999999963 Q 1.5789084301757814 0.02164499999999997 1.5742284301757814 0.028372499999999967 Q 1.5695484301757814 0.035099999999999965 1.5704259301757812 0.04592249999999998 Q 1.5713034301757813 0.056744999999999934 1.5753984301757813 0.06902999999999998 L 1.6649034301757815 0.32876999999999995 L 1.6491084301757812 0.34983 L 1.7239884301757813 0.13103999999999993 L 1.7321784301757814 0.14683499999999994 L 1.6403334301757813 0.42353999999999997 Q 1.6356534301757812 0.42295499999999997 1.6303884301757814 0.42295499999999997 Q 1.6251234301757813 0.42295499999999997 1.6198584301757815 0.42295499999999997 Q 1.6145934301757814 0.42295499999999997 1.6093284301757813 0.42295499999999997 Q 1.6040634301757812 0.42295499999999997 1.5993834301757814 0.42353999999999997 L 1.4683434301757814 0.05732999999999994 Q 1.4607384301757813 0.03568499999999997 1.4505009301757814 0.02807999999999994 Q 1.4402634301757813 0.020474999999999965 1.4314884301757813 0.019889999999999963 L 1.4314884301757813 0.008189999999999975 Q 1.4490384301757813 0.008774999999999977 1.4730234301757814 0.00935999999999998 Q 1.4970084301757813 0.009944999999999982 1.5186534301757812 0.009944999999999982 Q 1.5420534301757813 0.009944999999999982 1.5604809301757814 0.00935999999999998 Q 1.5789084301757814 0.008774999999999977 1.5906084301757812 0.008189999999999975 M 2.206623713378906 0.008189999999999975 L 2.206623713378906 0.019889999999999963 Q 2.1879037133789065 0.020474999999999965 2.1782512133789065 0.024277499999999952 Q 2.1685987133789064 0.02807999999999994 2.1656737133789066 0.03831749999999995 Q 2.1627487133789063 0.04855499999999996 2.1627487133789063 0.07019999999999998 L 2.1627487133789063 0.36035999999999996 Q 2.1627487133789063 0.38142 2.1659662133789066 0.39194999999999997 Q 2.1691837133789065 0.40247999999999995 2.1785437133789065 0.40598999999999996 Q 2.1879037133789065 0.4095 2.206623713378906 0.41067 L 2.206623713378906 0.42236999999999997 Q 2.1908287133789064 0.42119999999999996 2.1668437133789062 0.4209075 Q 2.1428587133789065 0.42061499999999996 2.1182887133789063 0.42061499999999996 Q 2.089623713378906 0.42061499999999996 2.0653462133789064 0.4209075 Q 2.0410687133789063 0.42119999999999996 2.0258587133789066 0.42236999999999997 L 2.0258587133789066 0.41067 Q 2.044578713378906 0.4095 2.053938713378906 0.40598999999999996 Q 2.0632987133789062 0.40247999999999995 2.0665162133789066 0.39194999999999997 Q 2.0697337133789064 0.38142 2.0697337133789064 0.36035999999999996 L 2.0697337133789064 0.07019999999999998 Q 2.0697337133789064 0.04855499999999996 2.0665162133789066 0.03831749999999995 Q 2.0632987133789062 0.02807999999999994 2.053646213378906 0.024277499999999952 Q 2.0439937133789066 0.020474999999999965 2.0258587133789066 0.019889999999999963 L 2.0258587133789066 0.008189999999999975 Q 2.0410687133789063 0.008774999999999977 2.0653462133789064 0.00935999999999998 Q 2.089623713378906 0.009944999999999982 2.1182887133789063 0.009944999999999982 Q 2.1428587133789065 0.009944999999999982 2.1668437133789062 0.00935999999999998 Q 2.1908287133789064 0.008774999999999977 2.206623713378906 0.008189999999999975 M 2.5529300024414066 0.008189999999999975 L 2.5529300024414066 0.019889999999999963 L 2.3528600024414064 0.408915 L 2.4137000024414066 0.408915 Q 2.4335900024414063 0.408915 2.4537725024414065 0.40247999999999995 Q 2.4739550024414063 0.396045 2.4912125024414062 0.38142 Q 2.508470002441406 0.366795 2.5207550024414065 0.3425175 Q 2.5330400024414064 0.31823999999999997 2.5371350024414063 0.28196999999999994 L 2.5505900024414063 0.28196999999999994 Q 2.5488350024414066 0.30185999999999996 2.5488350024414066 0.33344999999999997 Q 2.5488350024414066 0.34690499999999996 2.549420002441406 0.37147499999999994 Q 2.5500050024414063 0.396045 2.5529300024414066 0.42236999999999997 Q 2.5207550024414065 0.42119999999999996 2.4800975024414065 0.4209075 Q 2.4394400024414065 0.42061499999999996 2.4072650024414064 0.42061499999999996 Q 2.369240002441406 0.42061499999999996 2.3277050024414065 0.4209075 Q 2.2861700024414064 0.42119999999999996 2.2499000024414064 0.42236999999999997 L 2.2499000024414064 0.41067 L 2.4505550024414062 0.02164499999999997 L 2.387375002441406 0.02164499999999997 Q 2.3581250024414064 0.02164499999999997 2.3335550024414062 0.03246749999999998 Q 2.3089850024414065 0.04328999999999994 2.292605002441406 0.06932249999999995 Q 2.2762250024414064 0.09535499999999997 2.270375002441406 0.14156999999999997 L 2.2569200024414062 0.14156999999999997 Q 2.2580900024414063 0.13337999999999994 2.2583825024414064 0.12167999999999995 Q 2.2586750024414064 0.10997999999999997 2.2586750024414064 0.09710999999999997 Q 2.2586750024414064 0.08365499999999998 2.2577975024414063 0.05908499999999994 Q 2.2569200024414062 0.03451499999999996 2.2545800024414064 0.008189999999999975 Q 2.283830002441406 0.00935999999999998 2.3203925024414063 0.009652499999999953 Q 2.3569550024414063 0.009944999999999982 2.3862050024414065 0.009944999999999982 Q 2.4254000024414064 0.009944999999999982 2.4698600024414064 0.009652499999999953 Q 2.5143200024414063 0.00935999999999998 2.5529300024414066 0.008189999999999975" fill="#000000" fill-rule="nonzero"></path></g><g></g><g clip-path="url(#SvgjsClipPath1003)"><g clip-path="url(#b91785866-2da4-4e8a-a7cd-9f7cc6a5c4773be85e70-98dd-4a72-92b8-3d16c877f041)"><path d=" M -1.0116953965508269 0.5133759093474963 L -1.3477704861358233 0.403231359207348 C -1.3334621585773445 0.3762980367443294 -1.312193023017444 0.35639376549843316 -1.2885581226466025 0.3526403886349212 C -1.2721797508785506 0.2914944673675278 -1.1904016307311254 0.24681790882245336 -1.1179045879189293 0.26205889366216817 C -1.0823726202776838 0.2268453943608567 -0.9766183836809158 0.21997557731370154 -0.9146307960865532 0.25901069669422505 C -0.8568742878656038 0.24133570382786917 -0.7961605736309784 0.2487969620777596 -0.7685903144880911 0.30680369542294295 C -0.7391774885212982 0.30382374167070014 -0.6894964274915409 0.3250928772306009 -0.6971851631270987 0.3737730377634215 C -0.6898603913086088 0.382599160327316 -0.6841734566669242 0.39249442660384737 -0.680010620509211 0.40307212503738077 Z" fill="#3361e1" transform="matrix(1,0,0,1,0,0)" fill-rule="nonzero"></path></g><g clip-path="url(#b91785866-2da4-4e8a-a7cd-9f7cc6a5c4773be85e70-98dd-4a72-92b8-3d16c877f041)"><path d=" M -1.0145161161331022 0.5432891855627577 L -1.371268900075264 0.42538765657135147 C -1.3852980661855292 0.4633662653154905 -1.3931470821836616 0.5033486305662505 -1.394517088890471 0.5438123835497924 C -1.2300736867915174 0.5517968397867179 -1.0884462664750028 0.5796173240538394 -1.0145161161331022 0.7164222237942053 C -0.9405859657912019 0.5796173240538394 -0.7989357977361204 0.5517968397867179 -0.6345151433757339 0.5438123835497927 C -0.6358737868610302 0.5033473321037587 -0.6437231553092225 0.4633631714958435 -0.6577633321909407 0.425387656571351 Z M -0.41852536568455045 0.5913324094157096 C -0.4237345978163336 0.5961549299918583 -0.43645058367514067 0.5958592093904906 -0.4414550861598232 0.5912414184614427 L -0.4414778338983898 0.5919011028798781 C -0.4522375142404571 0.6369416252420205 -0.4552402157312667 0.7572316667829344 -0.44978075847524934 0.7684463018963366 C -0.44653038069175044 0.775024875456737 -0.43980728665595725 0.7791682803224229 -0.4324697294259612 0.7791149912841369 C -0.4326289635959286 0.7294339302543797 -0.4293987847194516 0.7024778600527946 -0.42889833447098336 0.6909902520765916 C -0.42676004704571 0.7052758318965033 -0.42400757067913464 0.7294794257315131 -0.4218920309924279 0.7788647661599026 C -0.4192018716683168 0.778986386427676 -0.41652093655109446 0.7784720209691391 -0.41406680892546954 0.7773634154144979 C -0.41832063603744984 0.6980193032937136 -0.4197764913057209 0.6397850925628629 -0.4193442842729531 0.6321191046658718 C -0.41670554659921155 0.6377150483532896 -0.4086073516694526 0.7026143464841947 -0.4042397858646387 0.7734280566424521 C -0.40353460596906965 0.7724726516226492 -0.40069113864822725 0.7681733290335357 -0.40044091352399325 0.7670131943666318 C -0.3979159145430853 0.7551388748347945 -0.40660555067557946 0.6348488332938805 -0.41852536568455045 0.5913324094157096 M -1.013583458851866 0.1313048923805546 L -1.607822633430779 0.3281865696756773 L -1.013583458851866 0.5250454992322333 L -0.44111387008132197 0.33537485506276676 L -0.4410683746041886 0.5392400880978782 C -0.4491438217953809 0.5473155352890704 -0.4506224248022188 0.5660141763909295 -0.4410683746041886 0.5755909743275265 C -0.4372695022635431 0.5793670989296051 -0.42448527318903606 0.5795263330995724 -0.4194807707043533 0.5755909743275265 C -0.41427153857257015 0.5703817421957433 -0.4101996933691241 0.5485211654331076 -0.4194807707043533 0.5392400880978782 L -0.4194807707043533 0.3282093174142442 L -0.4193670320115197 0.3281865696756774 L -0.4194807707043533 0.3281410741985439 L -0.4194807707043533 0.3281183264599772 L -0.4193670320115197 0.3281410741985439 L -0.704896646501223 -0.15954769293376514 L -1.3000912260999389 -0.35674783856882236 L -1.0145616116102358 0.13094092856348688 L -0.4196627526128873 0.328050083244277 L -0.41970824809002094 0.328050083244277 Z M -1.3507731876266327 0.3882860949690008 L -1.532186402696373 0.3281865696756774 L -1.0246616075338677 0.16003528619034557 L -1.0246616075338677 0.22277354915741066 C -1.0255032738608372 0.22277354915741066 -1.0263449401878064 0.22277354915741066 -1.0271866065147757 0.22281904463454416 C -1.0588287108611092 0.22381994513148062 -1.0959302724634599 0.23023480740730096 -1.1209527848868723 0.25148119522863477 C -1.1892414960642217 0.24042579428519972 -1.273180651375487 0.27543456393941057 -1.2962923537592936 0.34417822988809466 C -1.3196315335287674 0.34997890322261294 -1.337761481166458 0.3673354277490345 -1.3507731876266327 0.3882860949690008 M -1.0575093420242383 0.48544168638754137 L -1.137422147609191 0.4589633186958577 C -1.1354885898310183 0.457279986041919 -1.1336232752685458 0.4555739056494137 -1.13184895166034 0.45379958204120796 C -1.1192012090172334 0.4411518393981013 -1.1098746362048706 0.4243412605972815 -1.109851888466304 0.4061203220053239 C -1.109851888466304 0.38471470001402286 -1.1244786843647168 0.36792686895176974 -1.1409252993484689 0.35609804489706565 C -1.1513210158734684 0.34863678664717546 -1.161193534411433 0.3658340770036298 -1.150934304317834 0.3732043442992531 C -1.1407888129170685 0.3804836206406095 -1.132372149647375 0.3898101934529723 -1.1299381416207341 0.40232144966467853 C -1.1280955747968284 0.41169351795417486 -1.1323266541702417 0.4216115319692729 -1.1374448953477578 0.42957324046763146 C -1.1432615635857017 0.43835440761531963 -1.150817945453919 0.4458488519272398 -1.1596466881888947 0.4515930514002344 L -1.331414862106338 0.3947009572448211 C -1.3202229747315026 0.37834533321533603 -1.305141224061755 0.3654473654479953 -1.2859193849728607 0.36217169109438496 C -1.2826209628806837 0.3616029976302164 -1.2798684865141083 0.3583273232766061 -1.2790040724485723 0.3552563785700963 C -1.2704054272703451 0.32441044507359884 -1.2458833650954009 0.301503472336893 -1.2183813491682138 0.28676293774564643 C -1.2031335278432522 0.27878985618759056 -1.1866932848846745 0.27334306541299636 -1.1697011886353934 0.27063479110182886 C -1.157397875834996 0.26870132476095687 -1.1448949907831563 0.26838014973210234 -1.1325086360787755 0.2696793860820257 C -1.1277088632411938 0.2701343408533605 -1.1227043607565113 0.27195415993869954 -1.1179045879189293 0.27195415993869954 C -1.1119674281530105 0.27195415993869954 -1.1068946824526278 0.2651980815843782 -1.1021176573536127 0.2620588936621684 C -1.0967491910518625 0.25853299418432385 -1.090880274501644 0.25571227460204815 -1.084874871520025 0.2534147530068075 C -1.0707867015747847 0.24820315225979617 -1.0560694624106977 0.24488335922590132 -1.0411082225176198 0.24354223446884316 C -1.0076235513473806 0.2401528214223989 -0.9730469887259378 0.24406543245587808 -0.9416323617652718 0.2563037158047834 C -0.9387661467058628 0.25741835499455357 -0.9359681748621539 0.25869222835429095 -0.9331929507570117 0.26003434492972866 C -0.9405632180526351 0.26881497201648963 -0.9417461004581055 0.2806892915483272 -0.9386751557515958 0.29204041309312967 C -0.9597460274863897 0.2921669405128362 -0.9805132884364809 0.29707485873737094 -0.9994116177247878 0.30639423612874184 C -1.0189291774150497 0.316130268235306 -1.0301210647898849 0.33482890933716514 -1.0275278225932767 0.3566667383612342 C -1.026299444710673 0.3670852026248005 -1.0232057522655964 0.37718519854843235 -1.0190884115850167 0.38696672613213 C -1.0266320827072297 0.3851584814686697 -1.03444679668322 0.3847727601470512 -1.042131870753123 0.38582933920379314 C -1.0577595671484725 0.3879448788904998 -1.072591092693986 0.39668001050012736 -1.0796883871268084 0.4111475722285731 C -1.0852843308142262 0.4225669369890759 -1.0682007791506054 0.43262143743557435 -1.062582087724621 0.4211565771979382 C -1.0524138485852887 0.400365144147939 -1.0227507974942618 0.40129780142917537 -1.0065771553733105 0.41419576919651613 C -1.0051213001050392 0.4153559038634198 -1.0008219775159257 0.42193000030920724 -0.9972050870838143 0.42804914198365995 C -0.995658240861276 0.43066513191883493 -0.9939749082073372 0.4332356263768764 -0.9925645484161996 0.4359426072663183 C -0.9925108088748062 0.43607868221750035 -0.9924421460946447 0.4362083785800278 -0.9923598187690988 0.4363293188219528 L -0.9923143232919654 0.4364658052533532 C -0.9920640981677313 0.43714823741035536 -0.9918593685206306 0.437876165044491 -0.99165463887353 0.43858134494005985 C -0.9915649872109924 0.4388639888397059 -0.9914965539551632 0.4391529292532069 -0.9914499092264293 0.439445759005596 C -0.9914044137492959 0.43974147960696364 -0.9912906750564622 0.4404694072410993 -0.9912906750564622 0.4407878755810335 C -0.9912451795793287 0.44147030773803575 -0.9912906750564622 0.4421299921564712 -0.9913134227950289 0.44281242431347334 L -0.9913134227950289 0.44283517205204004 C -0.9913735256108372 0.4430609529344559 -0.9914266290678815 0.4432885391789312 -0.9914726569649961 0.4435176042090422 C -0.9916318911349633 0.4441772886274775 -0.9918366207820639 0.44481422530734627 -0.9920413504291645 0.4454739097257817 L -0.9921323413834315 0.4457468825885825 C -0.9929511330722335 0.44738363213980525 -0.9939021107328387 0.44895084332448254 -0.9949758087042738 0.45043291673333075 L -0.9961359433711775 0.45177503330876834 C -0.9974833207578643 0.4532627977967313 -0.9989190241850111 0.45466811596616064 -1.000435265960291 0.455983364943615 C -1.00532602975214 0.4603736784869954 -1.0135152156361658 0.46530993775597773 -1.0209082306703559 0.4692225487894568 C -1.0300203080552044 0.47396130580113505 -1.0393664225243495 0.4782357675770317 -1.0489106968460122 0.4820295256025311 C -1.051769079337174 0.4831865523359892 -1.0546353617759032 0.4843239660021518 -1.0575093420242365 0.4854416863875407 M -0.8680889229790059 0.4517977810473349 C -0.8665193290179009 0.4440180544575104 -0.864244555161227 0.4364203097762197 -0.8610826195004504 0.4291410334348633 C -0.855372937120199 0.41608383149755535 -0.8462055984778033 0.4023669451418119 -0.8310783523309221 0.4002059099779718 C -0.8257326337677385 0.39945523460526944 -0.8228664187083294 0.3927219039895149 -0.8241630398066335 0.3880358698447667 C -0.8257326337677385 0.382348935203082 -0.8310101091152219 0.38034713420920896 -0.8363558276784056 0.3811205573204781 C -0.8549862255645644 0.3837820427327865 -0.8682936526261065 0.39963721651380335 -0.8764145952944322 0.4154468948176867 C -0.8797555778751434 0.4219944778470628 -0.8824744880973062 0.42884125737010037 -0.884535537962758 0.43589711178918467 C -0.8939531017293877 0.41603833602042184 -0.9074880061765971 0.39815861350696535 -0.9223650271992442 0.38580659146522633 C -0.9321010593058083 0.3777083965354674 -0.9462046572171863 0.3916527602768781 -0.9363548864177884 0.39979645068377057 C -0.9174476332045208 0.4161035486470226 -0.903188204992024 0.4371199211033058 -0.8950222454420244 0.46071489456549664 L -1.013583458851866 0.5000002390702541 L -1.0288699391687144 0.4949274933698715 C -1.013060260864831 0.48808042406128305 -0.9970231051752804 0.4801187155629246 -0.9844891012250074 0.4681989005539535 C -0.972592033954603 0.4568932744862845 -0.9682699636269227 0.44187976703223697 -0.975117032935511 0.42668427766965555 C -0.9807129766229288 0.41428676015078303 -0.9891068921540552 0.40286739539028027 -0.9952942770442081 0.39069735525707516 C -1.000458013698858 0.3805063683791763 -1.004962065935072 0.36995141768420947 -1.0073050830074464 0.3587367825708073 C -1.0089201724456847 0.3509798037195495 -1.0084652176743498 0.3431318339140247 -1.0050758046279058 0.33696719676243847 C -1.0010267071630263 0.3295059385125483 -0.9922460800762652 0.3242739586421983 -0.9835109484666376 0.3208390501186208 C -0.9685412905871593 0.3149780361432347 -0.9526741932626978 0.31173843964779424 -0.9366051115420225 0.31126225218202386 C -0.9210001628852399 0.31101202705778974 -0.9053724664898904 0.3163804933595401 -0.8905409409443769 0.3206115727329535 C -0.8654274375666974 0.32779985812004286 -0.833444117141863 0.33846854750784316 -0.8095134961696538 0.3224313918182926 C -0.7989585454746871 0.31537959286260353 -0.8088538117512185 0.298205050244716 -0.8194997534004522 0.30532509241610506 C -0.8310101091152219 0.3130365757902295 -0.8452046979808667 0.31123950444345716 -0.8581026657482077 0.3086235145082822 C -0.874526532993393 0.30525684920040475 -0.8904044545129766 0.2996836532515539 -0.9066690875881945 0.2957027990023746 C -0.9100220161553413 0.2948904297530254 -0.9134066540932717 0.2942150199402994 -0.91681457898896 0.2936782502699349 C -0.9216370995651085 0.2848976231831739 -0.9235479096047146 0.2745474021353078 -0.9130384543868814 0.26913344035642384 C -0.9125607518769799 0.2688832152321897 -0.9121285448442118 0.2686329901079557 -0.9117418332885773 0.2683372695065881 C -0.9064188624639604 0.26779132378098636 -0.900891161992243 0.2654255589700455 -0.8958184162918603 0.2642881720417085 C -0.880431021633432 0.260776424146136 -0.8645877553684821 0.25970178399250576 -0.8488670838901117 0.2611034886423652 C -0.8183168709949817 0.2638559650089406 -0.793749313342904 0.28116699405822854 -0.7793499948301584 0.3074861275799452 C -0.7929986379702016 0.3454975987249653 -0.7800551747257274 0.38200771912458087 -0.7694547285536272 0.41910928072693154 Z M -0.7505513578046674 0.41285365262107854 C -0.7602646421726648 0.3808475844576773 -0.7733218441099728 0.34881876855570937 -0.7618569838723366 0.316471484313807 C -0.7409290643909369 0.31694918682370854 -0.7174988936671963 0.32777711038147606 -0.7093779509988705 0.3476358861502389 C -0.7067392133251289 0.3541189916417594 -0.7060795289066935 0.36080682678038056 -0.7064207449851945 0.3677448870432358 C -0.7066709701094286 0.37281763274361857 -0.7077173660834984 0.37643452317573 -0.7041914666056541 0.3807565935034104 C -0.7007278065219467 0.3850395506185573 -0.6976523055003048 0.38962235164585535 -0.6950013802246915 0.3944507321205871 Z M -0.6761662526914322 0.3881951040147339 C -0.6792980528455896 0.38208861835068075 -0.682943228889833 0.3762593806682373 -0.6870624194648999 0.3707703362726119 C -0.685401834549528 0.34827282283010763 -0.6935455249564205 0.3279818400285768 -0.7120849318883125 0.3137872511629318 C -0.7266551101081196 0.30274262312022826 -0.7444157055199971 0.29672397640537185 -0.7626986501993058 0.296635456283611 C -0.7760670331947754 0.27182531404235133 -0.7988059831389427 0.25339496916685567 -0.8258463724605721 0.24545304450844907 C -0.8541673069761618 0.2370818767158892 -0.8851724746426266 0.24035755106949963 -0.9132886795111155 0.24829651182929147 C -0.9403812361441012 0.2325095812639748 -0.9718868540590342 0.2249345843212509 -1.003255985542567 0.22311476523591178 L -1.003255985542567 0.15978506106611134 L -0.49498051500735896 0.3281865696756774 Z M -1.0722498766154849 0.34379151833246 C -1.0791879368783404 0.3257070661719029 -1.0602618183908137 0.3107845496721223 -1.045794256662368 0.30339153463793234 C -1.0344203873789986 0.29759086130341394 -1.0444521400869304 0.2805073096397932 -1.0558032616317328 0.2862852352357449 C -1.069906859543111 0.29349626836140097 -1.0845564031800905 0.3060530200502407 -1.0907665358088101 0.3211120229814217 C -1.0996303632489552 0.3137492270989246 -1.110155569326475 0.3086584004204801 -1.1214304873967738 0.30628049743590813 C -1.1449289013362147 0.3012532472126589 -1.1736137996688722 0.3043014441806018 -1.194427980457438 0.3166989616994744 C -1.2118982436766934 0.3270946782244739 -1.221839005430358 0.34563408515636584 -1.222544185325927 0.3656975905722294 C -1.2232721129600626 0.3871714557792306 -1.2123304507094614 0.4075989250121619 -1.1980676186281163 0.4228854053290102 C -1.1893324870184885 0.43225747361850664 -1.1753653755385112 0.4182221189228289 -1.1840550116710054 0.40889554611046597 C -1.2036408145769673 0.38789938341336627 -1.2127626577422295 0.35184421778508557 -1.184418975488073 0.33380526110166187 C -1.1689505132626907 0.3239327425636973 -1.1462710179116524 0.3221356712169249 -1.1285277818295962 0.3250246340149008 C -1.1118309417216101 0.32775436264290936 -1.0991604513399367 0.3372401696252394 -1.090357076514609 0.35143475849088424 C -1.0846473941343575 0.36060209713327995 -1.0680870404577718 0.35464218962879446 -1.0722498766154849 0.34379151833246" fill="#000000" transform="matrix(1,0,0,1,0,0)" fill-rule="nonzero"></path></g><g clip-path="url(#b91785866-2da4-4e8a-a7cd-9f7cc6a5c4773be85e70-98dd-4a72-92b8-3d16c877f041)"><path d=" M -0.8165880428639096 0.016861019651292608 C -0.820113942341754 0.02675628592782392 -0.8350137111029678 0.030486915052769015 -0.8498679843870481 0.025186691966718966 C -0.8647222576711285 0.01988646888066886 -0.8738895963135243 0.007579942316063293 -0.8703409490971129 -0.002315323960468074 C -0.8668150496192685 -0.012233337975566083 -0.8519152808580547 -0.01594121936194448 -0.8370610075739744 -0.010640996275894377 C -0.8222294820284608 -0.005363520928411025 -0.8130621433860651 0.006965753374761352 -0.8165880428639096 0.016861019651292608" fill="#51a8db" transform="matrix(1,0,0,1,0,0)" fill-rule="nonzero"></path></g></g></g><defs><clipPath id="SvgjsClipPath1003"><path d=" M -1.607822633430779 -0.35674499128413717 h 1.2078226334307791 v 1.1358599825682743 h -1.2078226334307791 Z"></path></clipPath><clipPath id="b91785866-2da4-4e8a-a7cd-9f7cc6a5c4773be85e70-98dd-4a72-92b8-3d16c877f041"><path d=" M -1.6305703719975178 -0.37949557713556087 L -0.3772609679244867 -0.37949557713556087 L -0.3772609679244867 0.8018627298508756 L -1.6305703719975178 0.8018627298508756 Z"></path></clipPath></defs></svg>